<?xml version="1.0" encoding="UTF-8"?>
<svg id="_图层_1" data-name=" 图层 1" xmlns="http://www.w3.org/2000/svg" xmlns:xlink="http://www.w3.org/1999/xlink" viewBox="0 0 908.91 1280">
  <defs>
    <style>
      .cls-1 {
        fill: url(#_未命名的渐变);
      }
    </style>
    <linearGradient id="_未命名的渐变" data-name="未命名的渐变" x1="454.45" y1="1277.89" x2="454.45" y2="-2.11" gradientTransform="translate(0 1277.89) scale(1 -1)" gradientUnits="userSpaceOnUse">
      <stop offset="0" stop-color="#ff3235"/>
      <stop offset="1" stop-color="#ff6044"/>
    </linearGradient>
  </defs>
  <path class="cls-1" d="M330.84,32.2c-26.3,174.9-69.3,298.5-143.7,413.8-13.2,20.4-29.3,43.1-60.1,85-53.1,71.8-65.4,90.7-84,128-22.6,45.4-34.6,86.4-41.2,141-2.2,18-2.5,64.6-.5,82,11,97.2,53.4,183.1,131.2,266,51.2,54.6,132.1,112.7,179.5,128.9h0c6.03,2.05,12.35,3.1,18.71,3.1h29.59c21.5,0,27.3-15.2,12.8-32.3-31.8-37.7-42.4-51.2-56.6-72.2-36.1-53.2-58.2-100.3-67.6-144-4.7-21.9-5.6-39.8-2.9-60,5.6-43.3,17.1-68.3,56-121,7.7-10.5,22.3-30.3,32.5-44,30.9-41.8,46.4-64.8,66.6-99,30-50.7,56.2-106.5,77.3-164.5,.03-.08,.06-.16,.09-.24,2.86-7.87,12.81-10.32,18.99-4.66,8.05,7.37,19.48,18.31,33.23,31.9,75.2,74,109.2,129.9,130.7,214.4,9.4,37.1,11.4,51.7,11.4,82.6-.1,47.1-7.6,95.1-25.5,162.4-17.7,66.8-40.1,130-75.9,213.9-8.2,19.4-3.4,36.7,10.7,36.7h6.23c12.64,0,24.93-4.12,35-11.75l4.57-3.45c85.8-65.1,141.9-122.2,188.2-191.8,53.1-79.8,82.8-163.1,91.5-256.5,1.9-20.3,1.6-73.6-.6-94.5-11.7-115.4-53.3-223.3-129.7-337.1C690.05,254.9,562.85,131.4,393.95,12.7l-2.96-2.09c-9.79-6.91-21.48-10.61-33.46-10.61h-1.79c-12.4,0-22.4,15.5-24.9,32.2h0Z"/>
</svg>